PathFileType	4	(X/Y/Z)	Patient4_TMGait_0pt2_01_left_23.trc.trc
DataRate	CameraRate	NumFrames	NumMarkers	Units	OrigDataRate	OrigDataStartFrame	OrigNumFrames
44.025157232704	44.025157232704	4	33	mm	44.025157232704	18	       141
Frame#	Time	Sacral			L.Shoulder			Chest			R.Shoulder			Neck			R.ASIS			L.ASIS			R.Thigh.Superior			R.Thigh.Lateral			R.Thigh.Inferior			R.Patella			L.Thigh.Superior			L.Thigh.Lateral			L.Thigh.Inferior			L.Patella			L.Shank.Superior			L.Shank.Lateral			L.Shank.Inferior			R.Shank.Superior			R.Shank.Lateral			R.Shank.Inferior			R.Heel			R.Midfoot.Superior			R.Midfoot.Lateral			R.Toe			L.Heel			L.Midfoot.Lateral			L.Midfoot.Superior			L.Toe			L.Elbow			L.Wrist			R.Elbow			R.Wrist			
		X1	Y1	Z1	X2	Y2	Z2	X3	Y3	Z3	X4	Y4	Z4	X5	Y5	Z5	X6	Y6	Z6	X7	Y7	Z7	X8	Y8	Z8	X9	Y9	Z9	X10	Y10	Z10	X11	Y11	Z11	X12	Y12	Z12	X13	Y13	Z13	X14	Y14	Z14	X15	Y15	Z15	X16	Y16	Z16	X17	Y17	Z17	X18	Y18	Z18	X19	Y19	Z19	X20	Y20	Z20	X21	Y21	Z21	X22	Y22	Z22	X23	Y23	Z23	X24	Y24	Z24	X25	Y25	Z25	X26	Y26	Z26	X27	Y27	Z27	X28	Y28	Z28	X29	Y29	Z29	X30	Y30	Z30	X31	Y31	Z31	X32	Y32	Z32	X33	Y33	Z33	

18	53.056142857143	827.672872281020	1007.203130754402	582.719359571453	963.605603281490	1422.443557954867	354.550276816250	1102.488514565916	1355.200604433666	486.599748846081	1069.687314978746	1436.437296549042	672.965196283965	986.034599335052	1489.074997686567	507.680413401658	1072.035970925513	931.995287587045	648.493535038774	1004.641531855798	956.844861728483	382.252322171345	1087.215991680062	724.708731574415	603.851268864809	1005.899918235230	615.845895296014	668.007349880834	1062.176522822911	564.713489580908	572.785725653806	1053.978812688752	472.561426419151	573.564924808631	1089.429509711824	776.036155563788	410.710211157715	1038.070575556130	647.150799358154	335.255302229547	1139.584339320934	586.902510212277	396.287040341794	1163.649079895636	515.456719218181	388.217445687771	1132.998412009504	442.095740202254	374.548036567357	1042.195441104544	331.295357197830	316.923291931446	1107.208719191675	213.576236355450	365.684294633071	1008.248370320183	388.670325796892	579.916975640304	928.946435853559	294.302169782160	646.424162141137	940.890967450630	199.560095351743	573.586890255728	776.921908837915	49.326578989251	552.843443039548	952.448332638523	96.543917728251	577.014451541174	865.026527107200	39.652200181579	620.889341551585	1071.804456054712	39.611360517333	597.007296431553	988.183744710211	51.152700657404	395.981283449917	1062.115563053050	47.779317096925	315.953990428384	1145.828034280265	111.228250765260	339.329250421612	1272.492746311113	61.468834517840	310.032407840207	805.675207399524	1101.428689676144	288.698201413266	760.496199764990	846.690794919516	322.905734127492	1235.903862114916	1136.957947563224	786.084689651455	1475.251482827724	1134.509813791884	693.215636737378	
19	53.078857142857	827.792191497333	1008.499796804556	581.436904542421	963.769755061671	1423.378250180788	352.628271519672	1103.440372875530	1355.211201348187	483.521864979599	1072.377152182915	1436.768040304495	669.985006122591	987.364594889345	1489.608613431116	505.690152134574	1071.901383290348	931.982827175301	645.836219758424	1003.409814331914	957.508188481509	379.895556779821	1084.579613456121	724.316765135757	601.840580769094	1002.525517023924	616.391286362809	666.933399056834	1057.781391902835	564.422905472078	571.754547603263	1048.684119119759	472.811109079778	573.024319354675	1085.848073562377	774.312580152506	406.807521083429	1030.974430147809	645.886710651524	332.451237199048	1132.305658970841	584.769818006544	392.428048740488	1156.021536193718	515.484592645397	385.886778814409	1129.110962333864	442.365135255356	372.322504546672	1044.803658110959	326.656073972605	312.977019891255	1114.906359859952	212.041788712662	363.281555123592	1003.331183285471	389.008786496742	579.597481038867	924.051022221866	294.715663518652	646.218413022811	936.225814531883	199.834943124870	573.523904824041	772.346540003816	49.495232033876	552.906311298249	947.974936019286	96.583664664523	577.043216047407	860.449339044279	39.730787527033	620.919435017808	1067.224913933055	39.554010892803	597.035472960111	1002.688277873684	44.758103009204	391.484445278279	1078.690146642495	43.283502107222	313.123526595907	1159.565204026574	110.156479838624	338.025946357968	1289.010075549202	64.757249761283	312.146421553229	802.319716444779	1104.624453586630	288.503634698145	753.387917963324	850.716242241652	324.753275694598	1245.582895525603	1141.665342692055	779.342570150210	1482.331310053910	1153.127912157797	681.757128481966	
20	53.101571428571	828.032291233543	1009.357880755275	579.541036478130	964.270254763365	1423.846165453209	350.168640080604	1104.446245237700	1354.964739502672	480.291339457283	1074.583673169360	1436.838296318508	666.728307122719	988.626497697768	1489.833690289286	503.184452305789	1071.851005337458	931.779565426594	643.144070930091	1002.709626704708	957.749969509233	377.412937936305	1082.271487248422	723.776725249475	599.700785959531	999.473639450357	616.725698816846	665.606950583828	1053.800214014326	563.969059309938	570.527265079541	1043.791653512130	472.832006846974	572.241845102720	1082.971513384380	772.294402513438	402.833869625929	1024.672878781550	644.323468689798	329.677403819484	1125.917604106269	582.455729721427	388.595681380734	1148.899492642871	514.930062288160	383.582194478477	1125.185683309555	442.149776476819	370.097218846081	1046.286486034194	322.747841013259	309.537212977043	1120.287946806344	210.899227563047	361.221207411824	998.720054872908	389.134053865772	579.070684588817	919.342818068301	295.010929345634	645.817384645156	931.663052433488	199.957774116787	573.332966743753	767.761602616671	49.573196681029	552.911932125030	943.476499459070	96.613794959549	577.018243855516	855.854938252811	39.777040510770	620.909196631930	1062.635111777694	39.513449030600	597.064879335656	1013.593544712288	40.507581726860	387.891562752991	1091.111590848517	40.307649246657	310.865291177747	1169.749520516876	109.433928824337	337.002032112141	1300.975358233538	67.099609932881	313.917619859282	800.561528503678	1106.605991423160	287.695666340892	748.291686871914	853.430839953337	325.752439598148	1254.091262762853	1145.814823322302	772.304631927890	1487.691772007695	1170.168745053619	670.588085733379	
21	53.124285714286	828.399830654763	1009.811609300660	577.044935608563	965.073662245704	1423.879061294911	347.169750168199	1105.509723528591	1354.496092611783	476.879343779825	1076.348586988036	1436.675155878284	663.189825203805	989.825269903850	1489.773555621198	500.162342565365	1071.924281990008	931.412284192319	640.386237701923	1002.535783298845	957.595006759596	374.778486680559	1080.322472824145	723.092830169426	597.427775029780	996.762756547244	616.862931834721	664.020375540747	1050.249727340264	563.359041551035	569.093322349609	1039.323053342589	472.625958040835	571.202860700060	1080.889572689465	770.117632326979	398.933176785205	1019.435460422625	642.572830639273	327.019199470679	1120.635735118376	580.106582484074	384.968727822138	1142.535389134395	513.878489299103	381.394626181251	1121.436145071770	441.461629475460	367.942194813381	1046.707032715427	319.488665744233	306.686875559853	1123.450278500447	209.936735780982	359.568791763829	994.420220228451	389.059151765692	578.328878281179	914.830118543226	295.204116331542	645.221000732654	927.203340968594	199.942624223076	573.016717569286	763.170680325098	49.577876352175	552.863830666568	938.956312612019	96.637701025523	576.944230641262	851.249178852291	39.801975290831	620.865840985642	1058.036299511599	39.487695618212	597.095131207076	1020.842660484981	37.973112570330	385.295562107996	1099.344945856757	38.491136878295	309.210089517056	1176.431224517319	108.813582589506	336.282817720008	1308.604058465884	68.288858649088	315.238908425722	800.213395845591	1107.450305923388	286.200146504006	745.114103601005	854.895449662174	325.794506533629	1261.452143060520	1149.401514228776	765.107884213019	1491.530740579836	1185.571700758405	659.797124368334	
